<svg width="124" height="52" viewBox="0 0 124 52" fill="none" xmlns="http://www.w3.org/2000/svg">
<path d="M1.968 22V5.44H10.032C12.72 5.44 14.064 6.784 14.064 9.472V12.688C14.064 15.376 12.72 16.72 10.032 16.72H5.424V22H1.968ZM5.424 13.6H9.888C10.368 13.6 10.608 13.36 10.608 12.88V9.28C10.608 8.8 10.368 8.56 9.888 8.56H5.424V13.6ZM17.2727 22V5.44H28.6007V8.56H20.7287V11.92H27.8807V15.04H20.7287V18.88H28.6007V22H17.2727ZM31.7571 22V5.44H39.8211C42.5091 5.44 43.8531 6.784 43.8531 9.472V12.208C43.8531 14.208 43.1091 15.456 41.6211 15.952L44.3331 21.28L43.9251 22H40.9491L38.0211 16.24H35.2131V22H31.7571ZM35.2131 13.12H39.6771C40.1571 13.12 40.3971 12.88 40.3971 12.4V9.28C40.3971 8.8 40.1571 8.56 39.6771 8.56H35.2131V13.12ZM46.5996 20.752V18.88H54.0396C54.5196 18.88 54.7596 18.64 54.7596 18.16V16.432C54.7596 15.968 54.5596 15.704 54.1596 15.64L49.4796 14.68C47.5596 14.296 46.5996 13.008 46.5996 10.816V9.472C46.5996 6.784 47.9436 5.44 50.6316 5.44H56.1276L57.7356 6.688V8.56H50.7756C50.2956 8.56 50.0556 8.8 50.0556 9.28V10.84C50.0556 11.288 50.2556 11.552 50.6556 11.632L55.3356 12.568C57.2556 12.952 58.2156 14.24 58.2156 16.432V17.968C58.2156 20.656 56.8716 22 54.1836 22H48.2076L46.5996 20.752ZM61.1889 17.968V9.472C61.1889 6.784 62.5329 5.44 65.2209 5.44H70.6929C73.3809 5.44 74.7249 6.784 74.7249 9.472V17.968C74.7249 20.656 73.3809 22 70.6929 22H65.2209C62.5329 22 61.1889 20.656 61.1889 17.968ZM64.6449 18.16C64.6449 18.64 64.8849 18.88 65.3649 18.88H70.5489C71.0289 18.88 71.2689 18.64 71.2689 18.16V9.28C71.2689 8.8 71.0289 8.56 70.5489 8.56H65.3649C64.8849 8.56 64.6449 8.8 64.6449 9.28V18.16ZM78.4211 22V5.44H82.1651L88.7411 16.312V5.44H92.1971V22H88.4531L81.8771 11.128V22H78.4211ZM94.6039 21.352L99.5239 5.44H104.804L109.724 21.352L109.292 22H106.412L105.404 18.64H98.9239L97.9159 22H95.0359L94.6039 21.352ZM99.8599 15.52H104.468L102.356 8.56H101.972L99.8599 15.52ZM112.124 22V5.44H115.58V18.88H122.732V22H112.124Z" fill="url(#paint0_linear_802_2951)"/>
<path d="M0.672 28.088L1.152 27.44H3.984L6.648 40.88H6.912L9.768 29.024H13.176L16.032 40.88H16.296L18.96 27.44H21.792L22.272 28.088L19.032 44H13.536L11.472 35.24L9.408 44H3.912L0.672 28.088ZM24.9133 44V27.44H36.2413V30.56H28.3693V33.92H35.5213V37.04H28.3693V40.88H36.2413V44H24.9133ZM39.3977 44V27.44H47.2217C49.9097 27.44 51.2537 28.784 51.2537 31.472V32.912C51.2537 33.456 51.0937 33.92 50.7737 34.304L49.9337 35.312L50.9417 36.152C51.4697 36.584 51.7337 37.224 51.7337 38.072V39.968C51.7337 42.656 50.3897 44 47.7017 44H39.3977ZM42.8537 40.88H47.5577C48.0377 40.88 48.2777 40.64 48.2777 40.16V37.76C48.2777 37.28 48.0377 37.04 47.5577 37.04H42.8537V40.88ZM42.8537 33.92H47.0777C47.5577 33.92 47.7977 33.68 47.7977 33.2V31.28C47.7977 30.8 47.5577 30.56 47.0777 30.56H42.8537V33.92ZM54.3339 42.752V40.88H61.7739C62.2539 40.88 62.4939 40.64 62.4939 40.16V38.432C62.4939 37.968 62.2939 37.704 61.8939 37.64L57.2139 36.68C55.2939 36.296 54.3339 35.008 54.3339 32.816V31.472C54.3339 28.784 55.6779 27.44 58.3659 27.44H63.8619L65.4699 28.688V30.56H58.5099C58.0299 30.56 57.7899 30.8 57.7899 31.28V32.84C57.7899 33.288 57.9899 33.552 58.3899 33.632L63.0699 34.568C64.9899 34.952 65.9499 36.24 65.9499 38.432V39.968C65.9499 42.656 64.6059 44 61.9179 44H55.9419L54.3339 42.752ZM69.1633 44V27.44H72.6193V44H69.1633ZM75.1541 30.56V27.44H88.6901V30.56H83.6501V44H80.1941V30.56H75.1541ZM91.2414 44V27.44H102.569V30.56H94.6974V33.92H101.849V37.04H94.6974V40.88H102.569V44H91.2414Z" fill="white"/>
<defs>
<linearGradient id="paint0_linear_802_2951" x1="-25.6198" y1="15" x2="137.835" y2="15" gradientUnits="userSpaceOnUse">
<stop stop-color="#FF56F6"/>
<stop offset="0.567492" stop-color="#B936EE" stop-opacity="0.88"/>
<stop offset="0.932292" stop-color="#3BACE2"/>
</linearGradient>
</defs>
</svg>
